<?xml version="1.0" encoding="UTF-8"?>
<svg width="24" height="144" version="1.1" viewBox="0 0 24 144" xmlns="http://www.w3.org/2000/svg" xmlns:cc="http://creativecommons.org/ns#" xmlns:dc="http://purl.org/dc/elements/1.1/" xmlns:rdf="http://www.w3.org/1999/02/22-rdf-syntax-ns#"><title>Arrows</title><g fill="#001222" fill-opacity=".75"><path d="m9 121v6h15v6l-24-1v-2z"/><path d="m15 97v6h-15v6l24-1v-2z"/><path d="m9 74v6h15v6l-24-2v-1z"/><path d="m15 50v6h-15v6l24-2v-1z"/><path d="m9 26v6h15v6l-24-2v-1z"/><path d="m15 2v6h-15v6l24-2v-1z"/></g><g><g fill="#0050a0"><path d="m15 99v6h-15v6h15v6l9-9z"/><path d="m9 123v6h15v6h-15v6l-9-9z"/></g><g fill="#0080ff"><path d="m15 51v6h-15v6h15v6l9-9z"/><path d="m9 75v6h15v6h-15v6l-9-9z"/></g><g fill="#0064c8"><path d="m15 3v6h-15v6h15v6l9-9z"/><path d="m9 27v6h15v6h-15v6l-9-9z"/></g></g></svg>