<?xml version="1.0" encoding="UTF-8"?>
<svg width="16" height="96" version="1.1" viewBox="0 0 16 96" xmlns="http://www.w3.org/2000/svg" xmlns:cc="http://creativecommons.org/ns#" xmlns:dc="http://purl.org/dc/elements/1.1/" xmlns:rdf="http://www.w3.org/1999/02/22-rdf-syntax-ns#"><title>Arrows</title><metadata><rdf:RDF><cc:Work rdf:about=""><dc:title>Arrows</dc:title></cc:Work></rdf:RDF></metadata><g fill="#001222" fill-opacity=".75"><path d="m6 80v4h10v4l-16 2e-6v-2z" /><path d="m10 64v4h-10v4l16 1e-6v-2z" /><path d="m6 49v4h10v4l-16-1.25v-0.75z" /><path d="m10 33v4h-10v4l16-1.25v-0.75z" /><path d="m6 17v4h10v4l-16-1v-1z" /><path d="m10 1v4h-10v4l16-1v-1z" /></g><g><g fill="#0050a0"><path d="m10 66v4h-10v4h10v4l6-6z" /><path d="m6 82v4h10v4h-10v4l-6-6z" /></g><g fill="#0080ff"><path d="m10 34v4h-10v4h10v4l6-6z" /><path d="m6 50v4h10v4h-10v4l-6-6z" /></g><g fill="#0064c8"><path d="m10 2v4h-10v4h10v4l6-6z" /><path d="m6 18v4h10v4h-10v4l-6-6z" /></g></g></svg>