<svg width="512" height="512" version="1.1" viewBox="0 0 128 128" xmlns="http://www.w3.org/2000/svg" xmlns:xlink="http://www.w3.org/1999/xlink"><defs><linearGradient id="d"><stop stop-color="#f0f0f0" stop-opacity=".50196" offset="0"/><stop stop-color="#f0f0f0" stop-opacity="0" offset="1"/></linearGradient><filter id="b" x="-.0030924" y="-.25464" width="1.0062" height="1.2593" color-interpolation-filters="sRGB"><feGaussianBlur result="fbSourceGraphic" stdDeviation="0.0038654995"/><feColorMatrix in="fbSourceGraphic" result="fbSourceGraphicAlpha" values="0 0 0 -1 0 0 0 0 -1 0 0 0 0 -1 0 0 0 0 1 0"/><feFlood flood-color="rgb(0,0,0)" flood-opacity=".50196" in="fbSourceGraphic" result="flood"/><feGaussianBlur in="fbSourceGraphic" result="blur" stdDeviation="0.000000"/><feOffset dx="0.000000" dy="-0.500000" in="blur" result="offset"/><feComposite in="flood" in2="offset" operator="out" result="comp1"/><feComposite in="comp1" in2="fbSourceGraphic" operator="atop" result="comp2"/></filter><radialGradient id="a" cx="89.5" cy="106.56" r=".56094" gradientTransform="matrix(1 0 0 .66574 0 35.62)" gradientUnits="userSpaceOnUse" xlink:href="#d"/><filter id="c" x="-.078092" y="-.32964" width="1.1562" height="1.4093" color-interpolation-filters="sRGB"><feGaussianBlur stdDeviation="0.0625"/></filter></defs><path d="m91 103 20.001 8.1256-9.0015 1.8744 9.9997-1.4689 11 4.4689-28 7 29 5h2l-28-5 27-7z" fill-opacity=".50196" stop-color="#000000" style="-inkscape-stroke:none;font-variation-settings:normal"/><path d="m91 103 34 13-27 7 28 5h2l-27-5 26-7z" fill="#f0f0f0" fill-opacity=".25" stop-color="#000000" style="-inkscape-stroke:none;font-variation-settings:normal"/><g transform="translate(-1.3333 -9.5625)" fill-rule="evenodd" filter="url(#c)" stroke-linejoin="round" stroke-width="1.2247"><ellipse transform="matrix(.66667 0 0 1 29.333 0)" cx="89.5" cy="107" rx="1.5" ry="1" fill="#a00000" fill-opacity=".5" filter="url(#b)" style="mix-blend-mode:normal"/><ellipse transform="matrix(.66667 0 0 1 29.333 0)" cx="89.5" cy="106.56" rx=".5" ry=".3125" fill="url(#a)" fill-opacity=".50196" style="mix-blend-mode:normal"/></g><g transform="translate(10,8)" fill-rule="evenodd" filter="url(#c)" stroke-linejoin="round" stroke-width="1.2247"><ellipse transform="matrix(.66667 0 0 1 29.333 0)" cx="89.5" cy="107" rx="1.5" ry="1" fill="#a00000" fill-opacity=".5" filter="url(#b)"/><ellipse transform="matrix(.66667 0 0 1 29.333 0)" cx="89.5" cy="106.56" rx=".5" ry=".3125" fill="url(#a)" fill-opacity=".50196"/></g><g transform="translate(1,19)" fill-rule="evenodd" filter="url(#c)" stroke-linejoin="round" stroke-width="1.2247"><ellipse transform="matrix(.66667 0 0 1 29.333 0)" cx="89.5" cy="107" rx="1.5" ry="1" fill="#a00000" fill-opacity=".5" filter="url(#b)"/><ellipse transform="matrix(.66667 0 0 1 29.333 0)" cx="89.5" cy="106.56" rx=".5" ry=".3125" fill="url(#a)" fill-opacity=".50196"/></g><g transform="translate(38)" fill-rule="evenodd" filter="url(#c)" stroke-linejoin="round" stroke-width="1.2247"><ellipse transform="matrix(.66667 0 0 1 29.333 0)" cx="89.5" cy="107" rx="1.5" ry="1" fill="#a00000" fill-opacity=".5" filter="url(#b)"/><ellipse transform="matrix(.66667 0 0 1 29.333 0)" cx="89.5" cy="106.56" rx=".5" ry=".3125" fill="url(#a)" fill-opacity=".50196"/></g><g transform="translate(-51,15)" fill-rule="evenodd" filter="url(#c)" stroke-linejoin="round" stroke-width="1.2247"><ellipse transform="matrix(.66667 0 0 1 29.333 0)" cx="89.5" cy="107" rx="1.5" ry="1" fill="#a00000" fill-opacity=".5" filter="url(#b)"/><ellipse transform="matrix(.66667 0 0 1 29.333 0)" cx="89.5" cy="106.56" rx=".5" ry=".3125" fill="url(#a)" fill-opacity=".50196"/></g><g transform="translate(-27,9)" fill-rule="evenodd" filter="url(#c)" stroke-linejoin="round" stroke-width="1.2247"><ellipse transform="matrix(.66667 0 0 1 29.333 0)" cx="89.5" cy="107" rx="1.5" ry="1" fill="#a00000" fill-opacity=".5" filter="url(#b)"/><ellipse transform="matrix(.66667 0 0 1 29.333 0)" cx="89.5" cy="106.56" rx=".5" ry=".3125" fill="url(#a)" fill-opacity=".50196"/></g><g transform="translate(30,-15)" fill-rule="evenodd" filter="url(#c)" stroke-linejoin="round" stroke-width="1.2247"><ellipse transform="matrix(.66667 0 0 1 29.333 0)" cx="89.5" cy="107" rx="1.5" ry="1" fill="#a00000" fill-opacity=".5" filter="url(#b)"/><ellipse transform="matrix(.66667 0 0 1 29.333 0)" cx="89.5" cy="106.56" rx=".5" ry=".3125" fill="url(#a)" fill-opacity=".50196"/></g><g transform="translate(35,-39)" fill-rule="evenodd" filter="url(#c)" stroke-linejoin="round" stroke-width="1.2247"><ellipse transform="matrix(.66667 0 0 1 29.333 0)" cx="89.5" cy="107" rx="1.5" ry="1" fill="#a00000" fill-opacity=".5" filter="url(#b)" style="mix-blend-mode:normal"/><ellipse transform="matrix(.66667 0 0 1 29.333 0)" cx="89.5" cy="106.56" rx=".5" ry=".3125" fill="url(#a)" fill-opacity=".50196" style="mix-blend-mode:normal"/></g><g transform="translate(23,-4)" fill-rule="evenodd" filter="url(#c)" stroke-linejoin="round" stroke-width="1.2247"><ellipse transform="matrix(.66667 0 0 1 29.333 0)" cx="89.5" cy="107" rx="1.5" ry="1" fill="#a00000" fill-opacity=".5" filter="url(#b)"/><ellipse transform="matrix(.66667 0 0 1 29.333 0)" cx="89.5" cy="106.56" rx=".5" ry=".3125" fill="url(#a)" fill-opacity=".50196"/></g><g transform="translate(-9,11)" fill-rule="evenodd" filter="url(#c)" stroke-linejoin="round" stroke-width="1.2247"><ellipse transform="matrix(.66667 0 0 1 29.333 0)" cx="89.5" cy="107" rx="1.5" ry="1" fill="#a00000" fill-opacity=".5" filter="url(#b)" style="mix-blend-mode:normal"/><ellipse transform="matrix(.66667 0 0 1 29.333 0)" cx="89.5" cy="106.56" rx=".5" ry=".3125" fill="url(#a)" fill-opacity=".50196" style="mix-blend-mode:normal"/></g><path d="m102 113 8.474-2.0887 0.52751 0.2143z" fill="#f0f0f0" fill-opacity=".25098" stop-color="#000000" style="-inkscape-stroke:none;font-variation-settings:normal"/></svg>
