<?xml version="1.0" encoding="UTF-8"?>
<svg width="16" height="48" version="1.1" viewBox="0 0 16 48" xmlns="http://www.w3.org/2000/svg"><g fill="#001222" fill-opacity=".75"><path d="m7.9858 32-1.9716 6h-6l4.5 3.5-1.5 5.5 5-3 5 3-1.5-5.5 4.5-3.5h-6z"/><path d="m7.9716 16-1.9716 6h-6l4.5 3.5-1.5 5.5 5-3 5 3-1.5-5.5 4.5-3.5h-6z"/><path d="m7.9858 0-1.9716 6h-6l4.5 3.5-1.5 5.5 5-3 5 3-1.5-5.5 4.5-3.5h-6z"/></g><path d="m7.9716 33-1.9716 6h-6l4.5 3.5-1.5 5.5 5-3 5 3-1.5-5.5 4.5-3.5h-6z" fill="#0050a0"/><path d="m7.9858 17-1.9716 6h-6l4.5 3.5-1.5 5.5 5-3 5 3-1.5-5.5 4.5-3.5h-6z" fill="#0080ff"/><path d="m7.9716 1-1.9716 6h-6l4.5 3.5-1.5 5.5 5-3 5 3-1.5-5.5 4.5-3.5h-6z" fill="#0064c8"/></svg>