<?xml version="1.0" encoding="UTF-8"?>
<svg width="16" height="48" version="1.1" viewBox="0 0 16 48" xmlns="http://www.w3.org/2000/svg" xmlns:xlink="http://www.w3.org/1999/xlink"><defs><linearGradient id="c" x1="8" x2="8" y1="3" y2="13" gradientUnits="userSpaceOnUse"><stop stop-color="#f5cd32" offset="0"/><stop stop-color="#d2af28" offset="1"/></linearGradient><linearGradient id="b" x1="8" x2="8" y1="3" y2="13" gradientTransform="translate(0,16)" gradientUnits="userSpaceOnUse"><stop stop-color="#ffdc23" offset="0"/><stop stop-color="#ffd232" offset="1"/></linearGradient><linearGradient id="a" x1="8" x2="8" y1="3" y2="13" gradientTransform="translate(0,32)" gradientUnits="userSpaceOnUse"><stop stop-color="#d2af28" offset="0"/><stop stop-color="#b49619" offset="1"/></linearGradient></defs><g><circle cx="8" cy="8" r="7" fill="url(#c)" fill-rule="evenodd" stroke="#001222" stroke-linecap="square" stroke-linejoin="round" stroke-width="2" style="paint-order:stroke fill markers"/><g fill="#585014"><path d="m11.5 12.691s-1.6187-0.83027-2.5-1c-0.65464-0.12607-1.3454-0.12607-2 0-0.88133 0.16973-2.5 1-2.5 1s1.4112-2.049 2.5-2.5c0.61592-0.25512 1.3841-0.25512 2 0 1.0888 0.451 2.5 2.5 2.5 2.5z" stop-color="#000000" style="-inkscape-stroke:none;font-variation-settings:normal"/><rect x="5.25" y="4.5" width="1.5" height="3.5" ry=".75" fill-rule="evenodd" style="paint-order:stroke fill markers"/><rect x="9.25" y="4.5" width="1.5" height="3.5" ry=".75" fill-rule="evenodd" style="paint-order:stroke fill markers"/></g><circle cx="8" cy="24" r="7" fill="url(#b)" fill-rule="evenodd" stroke="#001222" stroke-linecap="square" stroke-linejoin="round" stroke-width="2" style="paint-order:stroke fill markers"/><g transform="translate(0,16)" fill="#585014"><path d="m4.5 10s1.6187 0.83027 2.5 1c0.65464 0.12607 1.3454 0.12607 2 0 0.88133-0.16973 2.5-1 2.5-1s-1.4112 2.049-2.5 2.5c-0.61592 0.25512-1.3841 0.25512-2 0-1.0888-0.451-2.5-2.5-2.5-2.5z" fill="#585014" stop-color="#000000" style="-inkscape-stroke:none;font-variation-settings:normal"/><rect x="5.25" y="4" width="1.5" height="4" ry=".75" fill-rule="evenodd" style="paint-order:stroke fill markers"/><rect x="9.25" y="4" width="1.5" height="4" ry=".75" fill-rule="evenodd" style="paint-order:stroke fill markers"/></g><circle cx="8" cy="40" r="7" fill="url(#a)" fill-rule="evenodd" stroke="#001222" stroke-linecap="square" stroke-linejoin="round" stroke-width="2" style="paint-order:stroke fill markers"/><g transform="translate(0,32)" fill="#585014"><path transform="translate(0,-32)" d="m5 36 2 2-2 2 1-2z" stop-color="#000000" style="-inkscape-stroke:none;font-variation-settings:normal"/><path d="m11 4-2 2 2 2-1-2z" fill="#585014" stop-color="#000000" style="-inkscape-stroke:none;font-variation-settings:normal"/><path d="m4 11 1-1 1 1 1-1 1 1 1-1 1 1 1-1 1 1v1l-1-1-1 1-1-1-1 1-1-1-1 1-1-1-1 1z" stop-color="#000000" style="-inkscape-stroke:none;font-variation-settings:normal"/></g></g></svg>
