<?xml version="1.0" encoding="UTF-8"?>
<svg width="16" height="48" version="1.1" viewBox="0 0 16 48" xmlns="http://www.w3.org/2000/svg"><g fill="#001222" fill-opacity=".75"><path d="m7.5 1-2.5 2.6914v-1.6914h-1v2.7695l-3 3.2305h2v6h3v-6h4v6h3v-6h2l-6.5-7z"/><path d="m7.5 17-2.5 2.6914v-1.6914h-1v2.7695l-3 3.2305h2v6h3v-6h4v6h3v-6h2l-6.5-7z" stop-color="#000000"/><path d="m7.5 33-2.5 2.6914v-1.6914h-1v2.7695l-3 3.2305h2v6h3v-6h4v6h3v-6h2l-6.5-7z"/></g><path d="m7.5 2-2.5 2.6914v-1.6914h-1v2.7695l-3 3.2305h2v6h3v-6h4v6h3v-6h2l-6.5-7h-1z" fill="#0064c8"/><path d="m7.5 18-2.5 2.6914v-1.6914h-1v2.7695l-3 3.2305h2v6h3v-6h4v6h3v-6h2l-6.5-7z" fill="#0080ff"/><path d="m7.5 34-2.5 2.6914v-1.6914h-1v2.7695l-3 3.2305h2v6h3v-6h4v6h3v-6h2l-6.5-7z" fill="#0050a0"/></svg>