<?xml version="1.0" encoding="UTF-8"?>
<svg width="48" height="48" version="1.1" viewBox="0 0 48 48" xmlns="http://www.w3.org/2000/svg" xmlns:cc="http://creativecommons.org/ns#" xmlns:dc="http://purl.org/dc/elements/1.1/" xmlns:rdf="http://www.w3.org/1999/02/22-rdf-syntax-ns#" xmlns:xlink="http://www.w3.org/1999/xlink"><title>Mojave! Master Browser Logo</title><defs><linearGradient id="h" x1="18.833" x2="39.913" y1="175.97" y2="152.07" gradientTransform="matrix(1.9068 0 0 1.9068 -57.928 -162.23)" gradientUnits="userSpaceOnUse"><stop stop-color="#ff0" stop-opacity="0" offset="0"/><stop stop-color="#ffff58" stop-opacity=".55686" offset="1"/></linearGradient><linearGradient id="a" x1="45.436" x2="127.75" y1="186.35" y2="83.986" gradientTransform="matrix(1.9068 0 0 1.9068 -57.928 -162.23)" gradientUnits="userSpaceOnUse" xlink:href="#i"/><linearGradient id="i"><stop stop-color="#ffda36" offset="0"/><stop stop-color="#fff2b7" offset=".39657"/><stop stop-color="#fff3b9" offset=".56335"/><stop stop-color="#ffd933" offset="1"/></linearGradient><linearGradient id="g" x1="63.61" x2="151.83" y1="199.45" y2="102.25" gradientTransform="matrix(1.9068 0 0 1.9068 -57.928 -162.23)" gradientUnits="userSpaceOnUse"><stop stop-color="#d89204" offset="0"/><stop stop-color="#f9c920" offset=".35217"/><stop stop-color="#facc3b" offset=".59548"/><stop stop-color="#f3ac04" offset=".84533"/><stop stop-color="#da8904" offset="1"/></linearGradient><linearGradient id="f" x1="88.114" x2="91.701" y1="123.99" y2="126.65" gradientTransform="matrix(1.9068 0 0 1.9068 -57.928 -162.23)" gradientUnits="userSpaceOnUse"><stop stop-color="#f0af24" offset="0"/><stop stop-color="#f1af25" stop-opacity="0" offset="1"/></linearGradient><radialGradient id="c" cx="24" cy="24" r="20.592" gradientTransform="matrix(1 0 0 .64646 -.0089581 10.106)" gradientUnits="userSpaceOnUse"><stop stop-color="#0080ff" offset="0"/><stop stop-color="#048" offset="1"/></radialGradient><filter id="k" x="-.028274" y="-.055348" width="1.0461" height="1.2722" color-interpolation-filters="sRGB"><feFlood flood-color="rgb(240,240,240)" flood-opacity=".74902" in="SourceGraphic" result="flood"/><feGaussianBlur in="SourceGraphic" result="blur" stdDeviation="0.28562659"/><feOffset dx="-0.400000" dy="2.000000" in="blur" result="offset"/><feComposite in="flood" in2="offset" operator="out" result="comp1"/><feComposite in="comp1" in2="SourceGraphic" operator="in" result="comp2"/></filter><linearGradient id="e" x1="24" x2="24" y1="10.688" y2="25" gradientTransform="translate(-.0089581 1.6212)" gradientUnits="userSpaceOnUse"><stop offset="0"/><stop offset=".2"/><stop stop-opacity=".64" offset=".5"/><stop stop-opacity="0" offset="1"/></linearGradient><filter id="b" x="-.015594" y="-.015048" width="1.0312" height="1.0301" color-interpolation-filters="sRGB"><feGaussianBlur stdDeviation="0.17947729"/></filter><clipPath id="m"><path d="m3.408 37.312 5.096-26h6.76v3.328h0.208q1.82-1.56 3.9-2.756 2.132-1.196 4.42-1.196 2.808 0 4.108 1.196 1.3 1.144 1.924 3.172 2.028-1.872 4.16-3.12 2.184-1.248 4.472-1.248 3.224 0 4.68 1.716 1.456 1.664 1.456 5.044 0 1.768-0.416 3.744l-3.224 16.12h-8.32l3.016-15.08q0.156-0.728 0.26-1.248 0.156-0.572 0.156-1.04 0-1.092-0.572-1.612-0.572-0.572-1.612-0.572-1.508 0-4.264 2.912l-3.328 16.64h-8.32l3.016-15.08q0.156-0.728 0.26-1.248 0.156-0.572 0.156-1.04 0-1.092-0.572-1.612-0.572-0.572-1.508-0.572-1.612 0-4.368 2.912l-3.224 16.64z" color="#000000" fill="none" stroke-width="0" style="paint-order:stroke markers fill"/></clipPath><filter id="j" x="-.022452" y="-.033858" width="1.0449" height="1.0677" color-interpolation-filters="sRGB"><feGaussianBlur stdDeviation="0.40382391"/></filter><clipPath id="l"><path d="m23.793 8.6875c-1.8738 0-3.7128 0.50644-5.4004 1.4531l-0.01758 0.0098c-0.47328 0.27214-0.8771 0.64275-1.332 0.94141l-1.7793-1.7793h-6.7598l-1.9629 1.6152-5.0957 26 1.9629 2.3848h8.3203l1.9629-1.6191 3.0938-15.971c1.4853-1.433 2.6533-1.9629 2.5352-1.9629 0.06074 0 0.05432-0.0028 0.07227-0.0039 0.0022 0.02785 0.0078 0.04762 0.0078 0.1875 0 0.08978-0.01837 0.26592-0.08594 0.51367l-0.03125 0.13477c-0.06682 0.3341-0.15127 0.74173-0.25391 1.2207l-0.0059 0.02734-3.0156 15.08 1.9609 2.3926h8.3184l1.9629-1.6074 3.1934-15.963c1.387-1.2735 2.6819-1.9824 2.4375-1.9824 0.1218 0 0.14661 0.0044 0.17774 0.0078 0.0026 0.03128 0.0059 0.04469 0.0059 0.17578 0 0.08978-0.01837 0.26592-0.08594 0.51367l-0.03125 0.13477c-0.06682 0.3341-0.15127 0.74173-0.25391 1.2207l-0.0059 0.02734-3.0176 15.08 1.9629 2.3926h8.3184l1.9629-1.6074 3.2188-16.102c0.30211-1.435 0.45898-2.8207 0.45898-4.1562 0-2.5346-0.54002-4.7323-1.9453-6.3457-1.4422-1.6905-3.6932-2.414-6.1914-2.414-1.889 0-3.7457 0.53045-5.4629 1.5117l-0.01758 0.01172c-0.83086 0.48636-1.6039 1.1911-2.4023 1.7988-0.38413-0.59121-0.81311-1.1457-1.334-1.6074-1.3935-1.2734-3.2965-1.7148-5.4453-1.7148zm0 2c1.872 0 3.2408 0.39993 4.1074 1.1973 0.86666 0.76267 1.5078 1.8199 1.9238 3.1719 1.352-1.248 2.7388-2.2891 4.1602-3.1211 1.456-0.832 2.9454-1.248 4.4707-1.248 2.1493 0 3.711 0.5728 4.6816 1.7168 0.97066 1.1093 1.4551 2.7896 1.4551 5.043 0 1.1787-0.13868 2.4268-0.41602 3.7441l-3.2246 16.121h-8.3184l3.0156-15.08c0.104-0.48533 0.19043-0.90138 0.25976-1.248 0.104-0.38133 0.15625-0.72902 0.15625-1.041 0-0.728-0.19093-1.2647-0.57226-1.6113-0.38133-0.38133-0.918-0.57226-1.6113-0.57226-1.0053 0-2.4283 0.97078-4.2656 2.9121l-3.3281 16.641h-8.3184l3.0156-15.08c0.104-0.48533 0.19043-0.90138 0.25977-1.248 0.104-0.38133 0.15625-0.72902 0.15625-1.041 0-0.728-0.19093-1.2647-0.57227-1.6113-0.38133-0.38133-0.88381-0.57226-1.5078-0.57226-1.0747 0-2.5318 0.97078-4.3691 2.9121l-3.2227 16.641h-8.3203l5.0957-26h6.7598v3.3281h0.20898c1.2133-1.04 2.5118-1.9585 3.8984-2.7559 1.4213-0.79733 2.8965-1.1973 4.4219-1.1973z" color="#000000" fill="#0f0" stroke-linecap="square" stroke-linejoin="bevel" style="-inkscape-stroke:none;paint-order:stroke markers fill"/></clipPath><linearGradient id="d" x1="20" x2="46.265" y1="24" y2="24.001" gradientTransform="translate(-.0089581 1.6212)" gradientUnits="userSpaceOnUse"><stop offset="0"/><stop stop-opacity="0" offset="1"/></linearGradient></defs><g stroke-width="0"><path d="m23.784 11.309c-1.6996 0-3.3557 0.45221-4.9102 1.3242l-0.0098 0.0059c-0.92737 0.53324-1.7562 1.2057-2.6094 1.8438v-1.5489l-1-1h-6.7597l-0.98047 0.80664-5.0977 26 0.98242 1.1934h8.3203l0.98047-0.81055 3.1602-16.309c1.6666-1.703 2.9982-2.4336 3.4512-2.4336 0.4203 0 0.6123 0.09081 0.80078 0.2793l0.03516 0.0332c0.12353 0.1123 0.24414 0.3177 0.24414 0.87109 0 0.20089-0.03531 0.4628-0.12109 0.77734l-0.01563 0.06641c-0.06808 0.34038-0.15449 0.75418-0.25781 1.2363l-2e-3 0.01172-3.0156 15.08 0.98047 1.1973h8.3184l0.98242-0.80469 3.2598-16.312c1.6719-1.709 3.0047-2.4355 3.3516-2.4355 0.51 0 0.73724 0.11224 0.9043 0.2793l0.0332 0.0332c0.12353 0.1123 0.24609 0.3177 0.24609 0.87109 0 0.20089-0.03531 0.4628-0.12109 0.77734l-0.01563 0.06641c-0.06808 0.34038-0.15449 0.75418-0.25781 1.2363l-2e-3 0.01172-3.0156 15.08 0.98047 1.1973h8.3184l0.98047-0.80469 3.2227-16.109c0.28972-1.3762 0.4375-2.6941 0.4375-3.9512 0-2.3932-0.51159-4.3318-1.6992-5.6934-1.2065-1.4179-3.1137-2.0664-5.4375-2.0664-1.7071 0-3.3802 0.47423-4.9668 1.3809l-0.0098 0.0039c-1.1185 0.65473-2.185 1.5459-3.252 2.4375-0.43286-0.91158-0.9497-1.7397-1.6543-2.3633-1.1304-1.0381-2.7671-1.459-4.7792-1.459zm0 1c1.872 0 3.2408 0.39993 4.1074 1.1973 0.86666 0.76267 1.5078 1.8199 1.9238 3.1719 1.352-1.248 2.7388-2.2891 4.1602-3.1211 1.456-0.832 2.9454-1.248 4.4707-1.248 2.1493 0 3.711 0.5728 4.6816 1.7168 0.97066 1.1093 1.4551 2.7896 1.4551 5.043 0 1.1787-0.13868 2.4268-0.41602 3.7441l-3.2246 16.121h-8.3184l3.0156-15.08c0.104-0.48533 0.19043-0.90138 0.25976-1.248 0.104-0.38133 0.15625-0.72902 0.15625-1.041 0-0.728-0.19093-1.2647-0.57226-1.6113-0.38133-0.38133-0.918-0.57226-1.6113-0.57226-1.0053 0-2.4283 0.97078-4.2656 2.9121l-3.3281 16.641h-8.3184l3.0156-15.08c0.104-0.48533 0.19043-0.90138 0.25977-1.248 0.104-0.38133 0.15625-0.72902 0.15625-1.041 0-0.728-0.19093-1.2647-0.57227-1.6113-0.38133-0.38133-0.88381-0.57226-1.5078-0.57226-1.0747 0-2.5318 0.97078-4.3691 2.9121l-3.2227 16.641h-8.3203l5.0957-26h6.7598v3.3281h0.20898c1.2133-1.04 2.5118-1.9585 3.8984-2.7559 1.4213-0.79733 2.8965-1.1973 4.4219-1.1973z" color="#000000" fill="url(#d)" filter="url(#b)" style="mix-blend-mode:normal;paint-order:stroke markers fill"/><path d="m3.399 38.933 5.096-26h6.76v3.328h0.208q1.82-1.56 3.9-2.756 2.132-1.196 4.42-1.196 2.808 0 4.108 1.196 1.3 1.144 1.924 3.172 2.028-1.872 4.16-3.12 2.184-1.248 4.472-1.248 3.224 0 4.68 1.716 1.456 1.664 1.456 5.044 0 1.768-0.416 3.744l-3.224 16.12h-8.32l3.016-15.08q0.156-0.728 0.26-1.248 0.156-0.572 0.156-1.04 0-1.092-0.572-1.612-0.572-0.572-1.612-0.572-1.508 0-4.264 2.912l-3.328 16.64h-8.32l3.016-15.08q0.156-0.728 0.26-1.248 0.156-0.572 0.156-1.04 0-1.092-0.572-1.612-0.572-0.572-1.508-0.572-1.612 0-4.368 2.912l-3.224 16.64z" color="#000000" fill="url(#c)" style="paint-order:stroke markers fill"/><path transform="translate(-.0089581 1.6212)" d="m23.793 9.688c-1.6996 0-3.3557 0.45221-4.9102 1.3242l-0.0098 0.0059c-0.92737 0.53324-1.7562 1.2057-2.6094 1.8438v-1.5489l-1-1h-6.7597l-0.98047 0.80664-5.0977 26 0.98242 1.1934h8.3203l0.98047-0.81055 3.1602-16.309c1.6666-1.703 2.9982-2.4336 3.4512-2.4336 0.4203 0 0.6123 0.09081 0.80078 0.2793l0.03516 0.0332c0.12353 0.1123 0.24414 0.3177 0.24414 0.87109 0 0.20089-0.03531 0.4628-0.12109 0.77734l-0.01563 0.06641c-0.06808 0.34038-0.15449 0.75418-0.25781 1.2363l-2e-3 0.01172-3.0156 15.08 0.98047 1.1973h8.3184l0.98242-0.80469 3.2598-16.312c1.6719-1.709 3.0047-2.4355 3.3516-2.4355 0.51 0 0.73724 0.11224 0.9043 0.2793l0.0332 0.0332c0.12353 0.1123 0.24609 0.3177 0.24609 0.87109 0 0.20089-0.03531 0.4628-0.12109 0.77734l-0.01563 0.06641c-0.06808 0.34038-0.15449 0.75418-0.25781 1.2363l-2e-3 0.01172-3.0156 15.08 0.98047 1.1973h8.3184l0.98047-0.80469 3.2227-16.109c0.28972-1.3762 0.4375-2.6941 0.4375-3.9512 0-2.3932-0.51159-4.3318-1.6992-5.6934-1.2065-1.4179-3.1137-2.0664-5.4375-2.0664-1.7071 0-3.3802 0.47423-4.9668 1.3809l-0.0098 0.0039c-1.1185 0.65473-2.185 1.5459-3.252 2.4375-0.43286-0.91158-0.9497-1.7397-1.6543-2.3633-1.1304-1.0381-2.7671-1.459-4.7792-1.459zm0 1c1.872 0 3.2408 0.39993 4.1074 1.1973 0.86666 0.76267 1.5078 1.8199 1.9238 3.1719 1.352-1.248 2.7388-2.2891 4.1602-3.1211 1.456-0.832 2.9454-1.248 4.4707-1.248 2.1493 0 3.711 0.5728 4.6816 1.7168 0.97066 1.1093 1.4551 2.7896 1.4551 5.043 0 1.1787-0.13868 2.4268-0.41602 3.7441l-3.2246 16.121h-8.3184l3.0156-15.08c0.104-0.48533 0.19043-0.90138 0.25976-1.248 0.104-0.38133 0.15625-0.72902 0.15625-1.041 0-0.728-0.19093-1.2647-0.57226-1.6113-0.38133-0.38133-0.918-0.57226-1.6113-0.57226-1.0053 0-2.4283 0.97078-4.2656 2.9121l-3.3281 16.641h-8.3184l3.0156-15.08c0.104-0.48533 0.19043-0.90138 0.25977-1.248 0.104-0.38133 0.15625-0.72902 0.15625-1.041 0-0.728-0.19093-1.2647-0.57227-1.6113-0.38133-0.38133-0.88381-0.57226-1.5078-0.57226-1.0747 0-2.5318 0.97078-4.3691 2.9121l-3.2227 16.641h-8.3203l5.0957-26h6.7598v3.3281h0.20898c1.2133-1.04 2.5118-1.9585 3.8984-2.7559 1.4213-0.79733 2.8965-1.1973 4.4219-1.1973z" clip-path="url(#m)" color="#000000" filter="url(#j)" style="paint-order:stroke markers fill"/><path d="m6.1903 24.694 2.3048-11.761h6.76v3.328h0.208c1.2133-1.04 2.5133-1.9587 3.9-2.756 1.4213-0.79733 2.8947-1.196 4.42-1.196 1.872 0 3.2413 0.39867 4.108 1.196 0.86667 0.76267 1.508 1.82 1.924 3.172 1.352-1.248 2.7387-2.288 4.16-3.12 1.456-0.832 2.9467-1.248 4.472-1.248 2.1493 0 3.7093 0.572 4.68 1.716 0.97067 1.1093 1.456 2.7907 1.456 5.044 0 1.1787-0.04636 1.9635-0.32369 3.2809l-8.5717 1.2792c0.104-0.48533 0.14203-0.67739 0.21136-1.0241 0.104-0.38133 0.156-0.728 0.156-1.04 0-0.728-0.19067-1.2653-0.572-1.612-0.38133-0.38133-0.91867-0.572-1.612-0.572-1.0053 0-2.4267 0.97067-4.264 2.912l-8.5807 1.3233c0.104-0.48533 0.13938-0.66462 0.20871-1.0113 0.104-0.38133 0.156-0.728 0.156-1.04 0-0.728-0.19067-1.2653-0.572-1.612-0.38133-0.38133-0.884-0.572-1.508-0.572-1.0747 0-2.5307 0.97067-4.368 2.912z" color="#000000" fill="url(#e)" filter="url(#k)" style="mix-blend-mode:normal;paint-order:stroke markers fill"/></g><g transform="matrix(.18142 0 0 .18142 -.008958 2.7804)" stroke-width="20.833"><g><path d="m236.14 5.1e-5c-34.599-0.04702-92.971 31.78-129.21 67.826-29.133 28.978-51.867 63.058-65.384 94.622-16.984 39.659-2.0251 49.068 18.829 60.116-0.98762-0.6229-1.9305-1.2963-2.8054-2.0427-0.93572-0.79833-1.8075-1.6655-2.6152-2.5994-0.80773-0.93393-1.5506-1.9321-2.2309-2.9906-0.68026-1.0585-1.298-2.1776-1.8535-3.3542-0.55549-1.1766-1.0496-2.4109-1.483-3.6991-0.4334-1.2882-0.80639-2.6299-1.1204-4.0233-0.314-1.3934-0.56837-2.8377-0.76564-4.3298s-0.33654-3.0323-0.41977-4.6165c-0.08324-1.5842-0.11089-3.2127-0.08278-4.8826 0.0281-1.6699 0.11154-3.3809 0.24832-5.1299 0.13678-1.749-10.706 25.283-10.463 23.46 0.24334-1.8231 0.54004-3.6822 0.88783-5.5733 0.34778-1.8912-3.6121-7.1408-3.162-9.094 0.45012-1.9531 0.9504-3.9358 1.5007-5.9448 1.1007-4.0181 2.3994-8.1426 3.8883-12.348 1.4889-4.2053 3.1682-8.4917 5.0284-12.836 1.6945-3.9569 3.5416-7.9502 5.5339-11.965 1.9923-4.0143 4.1294-8.0498 6.405-12.093 2.2756-4.0429 4.6893-8.0925 7.2337-12.135 2.5444-4.0425 5.2203-8.0775 8.0191-12.091 2.7988-4.0131 5.7204-8.0047 8.7591-11.96 3.0386-3.9549 6.1937-7.8732 9.4577-11.741 3.264-3.8677 6.6371-7.6848 10.112-11.436 3.4749-3.7516 7.0516-7.4377 10.723-11.044 2.2335-2.1941 4.5539-4.3786 6.9499-6.5469 2.396-2.1683 4.8673-4.3198 7.4032-6.4474 2.5358-2.1276 5.1366-4.2315 7.7895-6.3035 2.6529-2.072 5.3586-4.1127 8.1058-6.1143 2.7472-2.0016 5.5354-3.9645 8.3541-5.8808 2.8187-1.9163 5.667-3.7859 8.5344-5.6019 2.8674-1.816 5.7544-3.5787 8.6477-5.2797 2.8934-1.701 5.7935-3.3402 8.6901-4.9112 2.8966-1.571 5.789-3.0738 8.6655-4.5002 2.8765-1.4264 5.7376-2.7764 8.5719-4.043s5.6415-2.4499 8.4112-3.5415c2.7698-1.0915 5.5015-2.0915 8.1846-2.9926 2.6831-0.90115 5.3177-1.7029 7.8919-2.3984 2.5742-0.6955 5.0882-1.2844 7.5313-1.7589 2.4431-0.47455 4.8148-0.83474 7.1046-1.0731 2.2898-0.23834 8.4719 4.4134 10.531 3.9329 3.9229-0.91563 0-4.5532-6.3982-4.6344z" fill="url(#a)"/><path d="m149.77 36.802c-56.249 23.467-104.63 89.478-130.98 168-7.296 21.739 14.185 22.066 29.184-2.3424l34.71-82.065z" fill="url(#h)"/><path d="m238.61 1.6269c-2.0619-0.01281-4.222 0.10219-6.469 0.33799s-4.5806 0.59254-6.9893 1.0622c-2.4087 0.4697-4.8929 1.0523-7.4396 1.7412-2.5467 0.68887-5.1559 1.4834-7.817 2.3767-2.6612 0.89331-5.3744 1.8859-8.1265 2.969-2.7521 1.083-5.5435 2.2568-8.363 3.5149-2.8194 1.258-5.6663 2.6001-8.5295 4.0184-2.8632 1.4183-5.7427 2.9128-8.626 4.4766s-5.7706 3.1966-8.6517 4.8905c-2.881 1.6939-5.7556 3.4491-8.6113 5.258-2.8557 1.8089-5.6926 3.6715-8.4999 5.5802-2.8073 1.9087-5.5846 3.8637-8.3206 5.8571-2.736 1.9935-5.4307 4.0256-8.0723 6.0887-2.6416 2.0631-5.2307 4.1564-7.755 6.2739-2.5242 2.1176-4.9839 4.2588-7.3677 6.4158-2.3838 2.157-4.692 4.3301-6.9125 6.5114-3.6569 3.5924-7.2191 7.2645-10.681 11.002-3.4614 3.7373-6.8222 7.5399-10.074 11.393-3.2514 3.8531-6.3935 7.7568-9.4203 11.697s-5.938 7.9153-8.7256 11.912c-2.7876 3.997-5.4518 8.0153-7.9856 12.04-2.5338 4.0251-4.9368 8.0568-7.2022 12.081-2.2653 4.024-4.3931 8.0408-6.3754 12.034-1.9823 3.9936-3.8196 7.9644-5.5044 11.899-1.8501 4.3201-3.518 8.5821-4.9969 12.761-1.4789 4.1786-2.768 8.2738-3.8598 12.26-0.54588 1.9932-1.0428 3.959-1.4889 5.8946-0.44611 1.9356 3.1856 7.2274 2.8412 9.099-0.34435 1.8716-0.63737 3.7099-0.87798 5.5113-0.24061 1.8013 10.936-25.314 10.801-23.589-0.13487 1.7247-0.21624 3.4094-0.24339 5.0501-0.02714 1.6407-2.17e-4 3.2372 0.08179 4.788 0.082 1.5508 0.2193 3.0552 0.41189 4.5101 0.19259 1.455 0.44133 2.8603 0.74594 4.2135 0.30461 1.3532 0.66488 2.6547 1.0829 3.9002 0.41806 1.2455 0.8939 2.4352 1.4268 3.5671 0.53294 1.1319 1.1235 2.206 1.7727 3.2183 0.64925 1.0123 1.3565 1.9629 2.1235 2.8497 0.76699 0.88682 1.5939 1.7114 2.4822 2.4713 0.88828 0.75992 1.838 1.4556 2.8507 2.0821 1.0127 0.62652 2.0888 1.1846 3.2291 1.6712 1.1403 0.4866 2.3454 0.90139 3.6164 1.2416 1.271 0.34019 2.6077 0.60597 4.0125 0.79324 1.4048 0.18726 2.8767 0.29636 4.4185 0.32419 1.5417 0.0279 3.1534-0.0264 4.8353-0.16456 1.6818-0.13811 3.4339-0.36049 5.259-0.67105 1.7887-0.30437 3.647-0.69472 5.5743-1.1736 1.9273-0.47888 3.9238-1.0457 5.9911-1.7047 2.0673-0.65897 4.205-1.4099 6.4139-2.2546 2.2088-0.84467 4.4888-1.7832 6.8405-2.8192s4.776-2.1696 7.2721-3.4025c2.4962-1.2329 5.0647-2.5653 7.7067-4.0007 2.642-1.4354 5.3569-2.973 8.1462-4.6165 2.7893-1.6435 5.6525-3.3929 8.5906-5.2501-1.019-0.17306-2.7078 0.82315-3.7153 0.62689-3.3805 1.9192-6.3439 2.624-10.123 4.3779-1.8898 0.87692-3.8162 1.7248-5.7675 2.5354-1.9512 0.81059-3.9271 1.5841-5.9143 2.3117-1.9871 0.72758-3.9857 1.4089-5.9832 2.0368-1.9975 0.6279-3.994 1.202-5.9764 1.7136s-3.9509 0.96061-5.8926 1.3391c-1.9417 0.37853-3.8565 0.6866-5.732 0.91543-1.8847 0.22996-3.7291 0.38081-5.5221 0.44244-1.793 0.0616-3.5341 0.0345-5.2097-0.0916-1.6757-0.12615-3.2868-0.35149-4.8195-0.68485-1.5327-0.33335-2.9874-0.77519-4.3515-1.3352-1.3641-0.56-2.6352-1.2422-3.7987-2.0526-0.58172-0.4052-1.1367-0.84254-1.6623-1.3125-0.52561-0.46998-1.0224-0.9724-1.4879-1.5086-0.46551-0.53623-0.89926-1.1067-1.3007-1.7106s-0.77022-1.2415-1.1036-1.9146c-0.33341-0.67309-0.63234-1.3808-0.89374-2.1245-0.2614-0.7437-0.48563-1.5235-0.67105-2.3393-0.26561-1.1686-0.46975-2.3729-0.61586-3.6104-0.14611-1.2376-0.23406-2.5086-0.26606-3.8105-0.03199-1.3019-0.0078-2.635 0.06898-3.9967 0.07674-1.3617 0.20618-2.7514 0.38627-4.1682 0.18009-1.4168-14.982 22.632-14.704 21.165 0.27808-1.4672 0.60387-2.9577 0.97454-4.4707 0.74135-3.0261 1.6619-6.1393 2.7413-9.3208 1.0795-3.1815 2.3177-6.4318 3.6922-9.7317 1.3746-3.2998 2.8864-6.6492 4.5131-10.03 1.6266-3.381 3.3681-6.7933 5.2038-10.218 1.8357-3.4251 3.7648-6.8632 5.7665-10.295 2.0017-3.4321 4.077-6.8579 6.205-10.258 2.128-3.3999 4.3088-6.7737 6.5213-10.103 2.2125-3.3295 4.4571-6.6145 6.7124-9.8351 2.2553-3.2207 4.521-6.3773 6.7775-9.4508 4.5129-6.1471 8.9863-11.962 13.253-17.291 4.2671-5.3288 8.328-10.172 12.016-14.376 2.6773-3.0521 5.3403-6.0013 7.9865-8.8497 2.6462-2.8485 5.2756-5.5958 7.886-8.2437 2.6104-2.648 5.2018-5.197 7.7717-7.6476 2.5699-2.4506 5.119-4.803 7.6436-7.0593 2.5247-2.2563 5.025-4.4158 7.4998-6.4809s4.9231-4.0353 7.3431-5.9123c2.42-1.877 4.812-3.6616 7.1726-5.3536 2.3606-1.692 4.6899-3.2916 6.9864-4.8018 2.2965-1.5101 4.5597-2.9304 6.7873-4.2618 2.2276-1.3313 4.4204-2.574 6.5745-3.7297 2.154-1.1557 4.2692-2.2243 6.3449-3.2074 2.0757-0.98309 4.1118-1.8804 6.1045-2.694 1.9927-0.81361 3.9424-1.5433 5.8473-2.1905 1.9049-0.64723 3.7648-1.2119 5.5773-1.6958 1.8124-0.48395 3.5773-0.88726 5.2925-1.211 1.7152-0.32377 3.3806-0.56839 4.9939-0.7351 1.6133-0.1667 3.1765-0.25468 4.6855-0.26507 1.509-0.01039 2.9637 0.05696 4.3623 0.20003 1.3985 0.14307-15.057 4.0497-13.775 4.3434 1.282 0.29366 2.8412 0.68865 4.0005 1.13 1.1593 0.4414 1.9188 0.92943 2.9494 1.5157 1.0305 0.58628 1.9955 1.2444 2.8911 1.9727 0.89562 0.7283 1.7217 1.527 2.4763 2.3945 0.7546 0.86746 1.4372 1.8036 2.0447 2.8074 0.60746 1.0038 1.1394 2.072 1.5934 3.2025 0.45396 1.1305 0.82982 2.3231 1.1263 3.5769 0.29647 1.2539 0.51336 2.5687 0.64837 3.9425 0.13502 1.3738-2.2235 6.4458-2.2539 7.9361-0.0304 1.4903-0.57468 2.6717-0.77454 4.2751-0.19987 1.6034-0.48597 3.263-0.85926 4.9762-0.37328 1.7132-0.83377 3.4799-1.3845 5.2994-0.55068 1.8194-1.1914 3.6914-1.9235 5.6137-0.18422 0.14322 1.7382 0.58729 1.7382 0.58729 0.81116-2.3647 1.5269-4.6371 2.1501-6.8189 0.62321-2.1818 1.1546-4.2728 1.5973-6.2759 0.44276-2.0031 0.79639-3.9181 1.0662-5.7468 0.2698-1.8287 0.45536-3.5708 0.5597-5.2294 0.10433-1.6586 0.12753-3.2341 0.0739-4.7269-0.0536-1.4928-0.18413-2.9029-0.38824-4.2342-0.2041-1.3313-0.48163-2.5832-0.82871-3.7573-0.34708-1.1741-0.76395-2.271-1.2465-3.2922-0.48256-1.0212-1.0305-1.9702-1.6416-2.8497-0.61111-0.87956-1.2856-1.6897-2.02-2.4319-0.73448-0.74222-1.529-1.4168-2.3817-2.026-0.85266-0.60918-1.7629-1.1533-2.7285-1.6338s-1.9862-0.8974-3.0596-1.2534c-1.0734-0.35601-2.1999-0.65098-3.3759-0.88685-1.176-0.23587 18.238-7.373 16.965-7.493-1.2734-0.12004-2.5946-0.18366-3.9603-0.19215z" fill="url(#a)"/><path d="m110.45 210.52c0-0.31498 0.59938-0.16419 0.90064-0.25915 1.9878-0.6266 3.9772-1.3075 5.9566-2.0338 1.9794-0.72632 3.9484-1.4986 5.8926-2.3078 1.9442-0.80914 3.8646-1.6554 5.7468-2.5305 3.5276-1.64 5.6702-2.3276 8.8444-4.1138-8.4014 4.7523-27.341 21.503-27.341 11.245z" fill="url(#a)"/><path d="m224.79 7.9296c-0.89734-0.1541 18.723-6.0193 17.779-6.1106-1.3177-0.12751-2.892-1.0947-4.4431-1.3187-2.0926-0.30225-3.8314-0.03708-6.1212 0.20126-2.2898 0.23834-4.6615 0.59853-7.1046 1.0731-2.4431 0.47456-4.9571 1.0634-7.5313 1.7589-2.5742 0.6955-5.2088 1.4973-7.8919 2.3984-2.6831 0.90115-5.4148 1.9011-8.1846 2.9926-2.7698 1.0915-5.577 2.2748-8.4112 3.5415s-5.6953 2.6166-8.5719 4.043c-2.8765 1.4264-5.7689 2.9293-8.6655 4.5002-2.8966 1.571-5.7967 3.2102-8.6901 4.9112-2.8934 1.701-5.7803 3.4636-8.6477 5.2797-2.8674 1.8161-5.7158 3.6856-8.5344 5.6019-2.8187 1.9163-5.6069 3.8792-8.3541 5.8808-2.7472 2.0016-5.4529 4.0423-8.1058 6.1143-2.6529 2.072-5.2536 4.1759-7.7895 6.3035-2.5358 2.1276-5.0072 4.2791-7.4032 6.4474-2.396 2.1683-4.7164 4.3528-6.9499 6.5469-3.6713 3.6065-7.248 7.2926-10.723 11.044-3.4749 3.7516-6.848 7.5687-10.112 11.436-3.264 3.8677-6.4191 7.786-9.4577 11.741-3.0386 3.9549-5.9603 7.9465-8.7591 11.96-2.7988 4.0131-5.4746 8.0482-8.0191 12.091-2.5444 4.0425-4.9581 8.0922-7.2337 12.135-2.2756 4.0429-4.4127 8.0783-6.405 12.093-1.9923 4.0143-3.8394 8.0077-5.5339 11.965-1.8602 4.3439-3.5395 8.6304-5.0284 12.836-1.4889 4.2053-2.7876 8.3298-3.8883 12.348-0.55034 2.009-1.0506 3.9917-1.5007 5.9448-0.45012 1.9531 2.6219 12.776 2.2741 14.667-0.34779 1.8912-0.6445 3.7502-0.88783 5.5733-0.24334 1.8231 11.487-30.782 11.351-29.033-0.13678 1.749-0.2202 3.46-0.24832 5.1299-0.0281 1.6699-4.64e-4 3.2984 0.08278 4.8826 0.08323 1.5842 0.2225 3.1245 0.41977 4.6165s0.45165 2.9364 0.76564 4.3298c0.31399 1.3934 0.68698 2.7351 1.1204 4.0233 0.4334 1.2883 0.92751 2.5225 1.483 3.6991 0.55549 1.1766 1.1732 2.2957 1.8535 3.3542 0.68027 1.0585 1.4232 2.0567 2.2309 2.9906 0.80773 0.93392 1.6795 1.8011 2.6152 2.5994 0.8749 0.74644 1.8178 1.4198 2.8054 2.0427 15.593 8.2601 43.07 4.2376 84.526-22.247-4.3776-3e-3 -4.9902 0-7.108 0-3.1742 1.7862-5.3168 1.4372-8.8444 3.0772-1.8822 0.87505-3.8025 1.7213-5.7468 2.5305-1.9442 0.80915-3.9132 1.5814-5.8926 2.3078-1.9794 0.72633-3.9689 1.4072-5.9566 2.0338-0.30126 0.095-0.59954 0.1667-0.90064 0.25915-21.562 7.0041-42.659 7.5512-46.608-9.8233-8.3285-36.641 29.66-85.675 59.106-119.24 85.548-97.523 135.82-82.894 112.55-21.797 0 0 2.2805 2.325 2.9305 1.0189 11.411-33.265 3.7404-48.953-13.639-52.752zm13.819-6.3027c1.3657 0.0085 2.6868 0.07212 3.9603 0.19215 1.2734 0.12003-18.141 7.2572-16.965 7.493 1.176 0.23587 2.3025 0.53084 3.3759 0.88685 1.0734 0.356 2.094 0.77296 3.0596 1.2534s1.8759 1.0246 2.7285 1.6338c0.85265 0.60918 1.6472 1.2837 2.3817 2.026 0.73448 0.74222 1.4089 1.5524 2.02 2.4319 0.61112 0.87956 1.1591 1.8285 1.6416 2.8497 0.48256 1.0212 0.89943 2.1181 1.2465 3.2922 0.34708 1.1741 0.62461 2.4259 0.82871 3.7573 0.20411 1.3313 0.33461 2.7414 0.38824 4.2342 0.0536 1.4928 0.0304 3.0683-0.0739 4.7269-0.10434 1.6586-0.2899 3.4007-0.5597 5.2294-0.2698 1.8287-0.62343 3.7437-1.0662 5.7468-0.44275 2.0031-0.97409 4.0942-1.5973 6.2759-0.62321 2.1818-2.1501 6.8189-2.1501 6.8189l-1.5734-1.0234s1.2079-3.3582 1.7586-5.1776c0.55069-1.8194 1.0112-3.5862 1.3845-5.2994 0.37329-1.7132 0.65939-3.3727 0.85926-4.9762 0.19986-1.6035 0.74411-2.7847 0.77454-4.2751 0.0304-1.4903 2.3889-6.5624 2.2539-7.9362-0.13501-1.3738-0.3519-2.6886-0.64837-3.9425-0.29648-1.2539-0.67234-2.4464-1.1263-3.5769-0.45396-1.1305-0.98591-2.1987-1.5934-3.2025-0.60745-1.0038-1.2901-1.9399-2.0447-2.8074-0.75459-0.86746-1.5806-1.6662-2.4763-2.3945-0.89562-0.7283-1.8606-1.3865-2.8911-1.9727-1.0305-0.58627-2.1269-1.2082-3.2863-1.6496-1.1593-0.4414-2.3817-0.70254-3.6636-0.9962-1.282-0.29366 15.174-4.2003 13.775-4.3434-1.3986-0.14307-2.8533-0.21042-4.3623-0.20003-1.509 0.01039-3.0722 0.09836-4.6855 0.26507-1.6133 0.1667-3.2787 0.41132-4.9939 0.7351-1.7152 0.32378-3.4801 0.72708-5.2925 1.211-1.8124 0.48395-3.6724 1.0486-5.5773 1.6958-1.9049 0.64723-3.8546 1.3769-5.8473 2.1905-1.9927 0.8136-4.0287 1.711-6.1045 2.694-2.0757 0.98309-4.1909 2.0518-6.3449 3.2074-2.154 1.1557-4.3469 2.3983-6.5745 3.7297-2.2276 1.3313-4.4908 2.7517-6.7873 4.2618-2.2965 1.5101-4.6258 3.1098-6.9864 4.8018-2.3606 1.692-4.7526 3.4766-7.1726 5.3536-2.42 1.877-4.8684 3.8472-7.3431 5.9123s-4.9751 4.2246-7.4998 6.4809c-2.5247 2.2563-5.0737 4.6087-7.6436 7.0593-2.5699 2.4506-5.1613 4.9996-7.7717 7.6476-2.6104 2.648-5.2398 5.3953-7.886 8.2437-2.6462 2.8485-5.3093 5.7977-7.9865 8.8497-3.6877 4.2039-7.7486 9.047-12.016 14.376-4.2672 5.3288-8.7405 11.143-13.253 17.291-2.2564 3.0736-4.5222 6.2302-6.7775 9.4508-2.2553 3.2207-4.5 6.5057-6.7124 9.8351-2.2125 3.3295-4.3933 6.7032-6.5213 10.103-2.1279 3.4-4.2033 6.8258-6.205 10.258-2.0017 3.4321-3.9308 6.8702-5.7665 10.295-1.8357 3.4251-3.5772 6.8374-5.2038 10.218-1.6266 3.381-3.1385 6.7304-4.5131 10.03-1.3746 3.2998-2.6128 6.5502-3.6922 9.7317-1.0795 3.1815-2 6.2947-2.7413 9.3208-0.37067 1.513-0.69647 3.0035-0.97454 4.4707-0.27807 1.4672 14.884-22.582 14.704-21.165-0.1801 1.4168-0.30953 2.8065-0.38627 4.1682-0.07674 1.3617-0.10097 2.6948-0.06898 3.9967 0.03199 1.3019 0.11994 2.5729 0.26606 3.8105 0.14611 1.2376 0.35026 2.4419 0.61586 3.6104 0.18542 0.81576 0.40964 1.5956 0.67105 2.3393 0.2614 0.7437 0.56033 1.4514 0.89374 2.1245 0.33342 0.67308 0.70218 1.3107 1.1036 1.9146s0.8352 1.1744 1.3007 1.7106c0.46551 0.53622 0.96232 1.0386 1.4879 1.5086 0.5256 0.46999 1.0806 0.90733 1.6623 1.3125 1.1634 0.8104 2.4346 1.4926 3.7987 2.0526 1.3641 0.56 2.8188 1.0018 4.3515 1.3352 1.5327 0.33336 3.1439 0.5587 4.8195 0.68485 1.6757 0.12614 3.4167 0.15326 5.2097 0.0916 1.793-0.0616 3.6374-0.21248 5.5221-0.44244 1.8754-0.22883 3.7903-0.5369 5.732-0.91543 1.9417-0.37852 3.9102-0.82758 5.8926-1.3391s3.9788-1.0857 5.9764-1.7136c1.9975-0.62789 3.9961-1.3092 5.9832-2.0368 1.9871-0.72757 3.9631-1.5011 5.9143-2.3117 1.9512-0.81058 3.8777-1.6585 5.7675-2.5354 3.7795-1.7538 6.743-2.4587 10.123-4.3779 1.0075 0.19626 2.6963-0.79995 3.7153-0.62689-2.938 1.8572-5.8013 3.6066-8.5906 5.2501-2.7893 1.6435-5.5042 3.1812-8.1462 4.6165-2.642 1.4354-5.2105 2.7678-7.7067 4.0007-2.4962 1.2329-4.9203 2.3666-7.2721 3.4025s-4.6317 1.9745-6.8405 2.8192c-2.2088 0.84468-4.3465 1.5956-6.4139 2.2546-2.0674 0.65898-4.0638 1.2258-5.9911 1.7047-1.9273 0.47887-3.7856 0.86922-5.5743 1.1736-1.8251 0.31056-3.5772 0.53294-5.259 0.67105-1.6818 0.13811-3.2935 0.19239-4.8353 0.16456-1.5417-0.0279-3.0137-0.13693-4.4185-0.32419-1.4048-0.18727-2.7415-0.45305-4.0125-0.79324-1.271-0.34019-2.4761-0.75498-3.6164-1.2416-1.1403-0.48661-2.2164-1.0447-3.2291-1.6712-1.0127-0.62653-1.9624-1.3222-2.8507-2.0821-0.88828-0.75993-1.7152-1.5845-2.4822-2.4713-0.767-0.88683-1.4743-1.8374-2.1235-2.8497-0.64925-1.0123-1.2398-2.0864-1.7727-3.2183-0.53294-1.1319-1.0088-2.3216-1.4268-3.5671-0.41805-1.2455-0.77833-2.547-1.0829-3.9002-0.30461-1.3532-0.55334-2.7586-0.74594-4.2135-0.19259-1.455-0.32988-2.9593-0.41189-4.5101-0.08201-1.5508-0.10894-3.1473-0.08179-4.788 0.02714-1.6407 0.10852-3.3254 0.24339-5.0501 0.13488-1.7247-11.598 30.903-11.357 29.102 0.24061-1.8013 0.53362-3.6396 0.87798-5.5113 0.34436-1.8716-2.7311-12.677-2.285-14.612 0.44611-1.9356 0.94304-3.9014 1.4889-5.8946 1.0917-3.9863 2.3809-8.0815 3.8598-12.26 1.4789-4.1786 3.1468-8.4406 4.9969-12.761 1.6847-3.9341 3.522-7.9049 5.5044-11.899 1.9823-3.9937 4.1101-8.0105 6.3754-12.034 2.2653-4.024 4.6684-8.0557 7.2022-12.081 2.5338-4.0251 5.198-8.0434 7.9856-12.04 2.7876-3.997 5.6988-7.9726 8.7256-11.912 3.0268-3.9397 6.1689-7.8434 9.4203-11.697 3.2514-3.8531 6.6121-7.6557 10.074-11.393 3.4614-3.7373 7.0237-7.4095 10.681-11.002 2.2205-2.1813 4.5286-4.3544 6.9125-6.5114 2.3838-2.157 4.8435-4.2982 7.3677-6.4158 2.5242-2.1176 5.1134-4.2109 7.755-6.2739 2.6416-2.0631 5.3363-4.0952 8.0723-6.0887 2.736-1.9935 5.5132-3.9484 8.3206-5.8571 2.8073-1.9087 5.6442-3.7714 8.4999-5.5802 2.8557-1.8089 5.7302-3.5641 8.6113-5.258 2.881-1.6939 5.7683-3.3266 8.6517-4.8905s5.7629-3.0583 8.626-4.4766c2.8632-1.4183 5.7101-2.7604 8.5295-4.0184 2.8194-1.258 5.6109-2.4318 8.363-3.5149 2.7521-1.083 5.4653-2.0756 8.1265-2.969 2.6612-0.89332 5.2703-1.6879 7.817-2.3767 2.5467-0.68887 5.031-1.2715 7.4396-1.7412 2.4087-0.4697 4.7423-0.82645 6.9893-1.0622s4.4072-0.35082 6.469-0.33799z" fill="#fff"/><path d="m238.61 0.99332c-33.409-0.20797-91.368 32.551-127 67.554-29.313 28.796-52.589 62.697-66.105 94.261-29.682 69.313 2.4939 99.417 99.394 37.508-4.4091-2e-3 -4.4533 0-7.1109 0-26.97 15.369-68.178 25.774-73.949 0.38518-8.3285-36.642 29.66-85.675 59.106-119.24 85.548-97.523 135.82-82.894 112.55-21.797-0.53829 1.4135 0 0 0 0l2.2805 2.325s0.37542-0.50558 0.65003-1.3061c13.031-37.99 22.313-59.55 0.1844-59.688z" fill="url(#g)"/><path d="m238.61 0.99332c-33.409-0.20797-91.368 32.551-127 67.554-29.313 28.796-52.589 62.697-66.105 94.261-29.682 69.312 2.4932 98.381 99.392 36.474-1.3275-3e-3 -5.314-3e-3 -7.108-3e-3 -26.969 15.371-68.177 26.813-73.949 1.4217-8.3285-36.641 29.66-85.675 59.106-119.24 85.548-97.523 112.55-21.797 112.55-21.797l2.2805 2.325s22.963-60.856 0.83443-60.994z" fill="url(#f)"/></g><path d="m220.49 10.147c-26.405-0.07512-56.423 18.484-101.87 70.293-29.446 33.567-65.085 80.918-56.756 117.56 0.74624 3.2831 2.1583 5.9763 4.1031 8.1511-0.93417-1.5816-1.6526-3.3904-2.1205-5.4492-8.3285-36.642 29.66-85.675 59.106-119.24 50.432-57.492 83.101-73.866 107.06-68.848-2.9176-0.77115-6.0002-2.4544-9.5238-2.4644z" fill-opacity=".05102"/></g><metadata><rdf:RDF><cc:Work rdf:about=""><dc:title>Mojave! Master Browser Logo</dc:title><dc:creator><cc:Agent><dc:title>SKCro, Microsoft</dc:title></cc:Agent></dc:creator><dc:description>Shameless ripoff of the IE logo lol</dc:description></cc:Work></rdf:RDF></metadata><path transform="translate(-.0089581 1.6212)" d="m18 37-0.03108 1.313h8.3184l0.98242-0.80469 3.2598-16.312c1.6719-1.709 3.0047-2.4355 3.3516-2.4355 0.51 0 0.73724 0.11224 0.9043 0.2793l0.0332 0.0332c0.12353 0.1123 0.24609 0.3177 0.24609 0.87109 0 0.20089-0.03531 0.4628-0.12109 0.77734l-0.01563 0.06641c-0.06808 0.34038-0.15449 0.75418-0.25781 1.2363l-2e-3 0.01172-3.0156 15.08 0.98047 1.1973h8.3184l0.98047-0.80469 3.2227-16.109c0.28972-1.3762 0.4375-2.6941 0.4375-3.9512 0-2.3932-0.51159-4.3318-1.6992-5.6934-1.2065-1.4179-3.1137-2.0664-5.4375-2.0664-1.7071 0-3.3802 0.47423-4.9668 1.3809l-0.0098 0.0039c-1.1185 0.65473-2.185 1.5459-3.252 2.4375-0.43286-0.91158-0.9497-1.7397-1.6543-2.3633zm10.572-25.853c0.86666 0.76267 0.83609 2.5582 1.2521 3.9102 1.352-1.248 2.7388-2.2891 4.1602-3.1211 1.456-0.832 2.9454-1.248 4.4707-1.248 2.1493 0 3.574 0.77167 4.5447 1.9157 0.97066 1.1093 1.592 2.5908 1.592 4.8441 0 1.1787-0.13868 2.4268-0.41602 3.7441l-3.2246 16.121h-8.3184l3.0156-15.08c0.104-0.48533 0.19043-0.90138 0.25976-1.248 0.104-0.38133 0.15625-0.72902 0.15625-1.041 0-0.728-0.19093-1.2647-0.57226-1.6113-0.38133-0.38133-0.918-0.57226-1.6113-0.57226-1.0053 0-2.4283 0.97078-4.2656 2.9121l-3.2761 16.38-8.3394-0.052724z" clip-path="url(#l)" color="#000000" filter="url(#b)" stroke-width="0" style="paint-order:stroke markers fill"/></svg>
