<?xml version="1.0" encoding="UTF-8"?>
<svg width="16" height="48" version="1.1" viewBox="0 0 16 48" xmlns="http://www.w3.org/2000/svg"><g fill="#001222" fill-opacity=".75"><path d="m3.5418 12.557c1.2332 0.94407 2.7 1.443 4.2417 1.4429h9.48e-5c0.31064 0 0.62536-0.02089 0.93534-0.06207 1.8536-0.24619 3.5005-1.1995 4.6372-2.6843 0.69157-0.90335 1.1565-1.9703 1.3446-3.0855 0.0327-0.19384-0.09796-0.37752-0.2918-0.41022l-0.936-0.15786c-0.09321-0.015662-0.18862 0.00622-0.26555 0.060941-0.07693 0.054723-0.12896 0.13774-0.14467 0.23086-0.14329 0.84939-0.49788 1.6627-1.0256 2.352-0.86695 1.1325-2.123 1.8596-3.5369 2.0474-0.23703 0.03151-0.47752 0.04746-0.71469 0.04746-1.175 0-2.2932-0.3806-3.2339-1.1007-1.1325-0.86694-1.8596-2.123-2.0473-3.5368-0.18781-1.4138 0.18624-2.8161 1.0531-3.9486 1.0176-1.3293 2.5654-2.0916 4.2464-2.0916 1.1811 0 2.3012 0.37951 3.2391 1.0974 0.31088 0.23798 0.58996 0.50381 0.83657 0.79518l-1.753-0.30945c-0.09284-0.01647-0.18857 0.00479-0.26598 0.0589-0.077411 0.054155-0.13 0.13679-0.14642 0.22976l-0.16503 0.93477c-0.034173 0.1936 0.095067 0.37823 0.28862 0.4124l4.2066 0.74264c0.02059 0.00366 0.04124 0.00541 0.06188 0.00541 0.07253 0 0.14386-0.022165 0.20414-0.064311 0.07737-0.054155 0.13-0.13679 0.14637-0.22976l0.7426-4.2066c0.034226-0.1936-0.095015-0.37823-0.28861-0.41245l-0.93477-0.16503c-0.19388-0.034315-0.37827 0.095067-0.4124 0.28867l-0.31254 1.7703c-0.3506-0.43485-0.75323-0.82883-1.1983-1.1696-1.2299-0.94156-2.6987-1.4392-4.2476-1.4392-2.2033 0-4.2323 0.9997-5.5666 2.7427-1.1366 1.4849-1.627 3.3235-1.3808 5.1771 0.24623 1.8538 1.1996 3.5006 2.6843 4.6372z"/><path d="m3.5418 28.557c1.2332 0.94407 2.7 1.443 4.2417 1.4429h9.48e-5c0.31064 0 0.62536-0.02089 0.93534-0.06207 1.8536-0.24619 3.5005-1.1995 4.6372-2.6843 0.69157-0.90335 1.1565-1.9703 1.3446-3.0855 0.0327-0.19384-0.09796-0.37752-0.2918-0.41022l-0.936-0.15786c-0.09321-0.01566-0.18862 0.0062-0.26555 0.06094-0.07693 0.05472-0.12896 0.13774-0.14467 0.23086-0.14329 0.84939-0.49788 1.6627-1.0256 2.352-0.86695 1.1325-2.123 1.8596-3.5369 2.0474-0.23703 0.03151-0.47752 0.04746-0.71469 0.04746-1.175 0-2.2932-0.3806-3.2339-1.1007-1.1325-0.86694-1.8596-2.123-2.0473-3.5368-0.18781-1.4138 0.18624-2.8161 1.0531-3.9486 1.0176-1.3293 2.5654-2.0916 4.2464-2.0916 1.1811 0 2.3012 0.37951 3.2391 1.0974 0.31088 0.23798 0.58996 0.50381 0.83657 0.79518l-1.753-0.30945c-0.09284-0.01647-0.18857 0.0048-0.26598 0.0589-0.077411 0.05415-0.13 0.13679-0.14642 0.22976l-0.16503 0.93477c-0.034173 0.1936 0.095067 0.37823 0.28862 0.4124l4.2066 0.74264c0.02059 0.0037 0.04124 0.0054 0.06188 0.0054 0.07253 0 0.14386-0.02217 0.20414-0.06431 0.07737-0.05416 0.13-0.13679 0.14637-0.22976l0.7426-4.2066c0.03423-0.1936-0.09502-0.37822-0.28861-0.41245l-0.93477-0.16503c-0.19388-0.03431-0.37827 0.09507-0.4124 0.28867l-0.31254 1.7703c-0.3506-0.43484-0.75323-0.82882-1.1983-1.1696-1.2299-0.94156-2.6987-1.4392-4.2476-1.4392-2.2033 0-4.2323 0.9997-5.5666 2.7427-1.1366 1.4849-1.627 3.3235-1.3808 5.1771 0.24623 1.8538 1.1996 3.5006 2.6843 4.6372z"/><path d="m3.5418 44.557c1.2332 0.94407 2.7 1.443 4.2417 1.4429h9.48e-5c0.31064 0 0.62536-0.02089 0.93534-0.06207 1.8536-0.24619 3.5005-1.1995 4.6372-2.6843 0.69157-0.90335 1.1565-1.9703 1.3446-3.0855 0.0327-0.19384-0.09796-0.37752-0.2918-0.41022l-0.936-0.15786c-0.09321-0.01566-0.18862 0.0062-0.26555 0.06094-0.07693 0.05472-0.12896 0.13774-0.14467 0.23086-0.14329 0.84939-0.49788 1.6627-1.0256 2.352-0.86695 1.1325-2.123 1.8596-3.5369 2.0474-0.23703 0.03151-0.47752 0.04746-0.71469 0.04746-1.175 0-2.2932-0.3806-3.2339-1.1007-1.1325-0.86694-1.8596-2.123-2.0473-3.5368-0.18781-1.4138 0.18624-2.8161 1.0531-3.9486 1.0176-1.3293 2.5654-2.0916 4.2464-2.0916 1.1811 0 2.3012 0.37951 3.2391 1.0974 0.31088 0.23798 0.58996 0.50381 0.83657 0.79518l-1.753-0.30945c-0.09284-0.01647-0.18857 0.0048-0.26598 0.0589-0.077411 0.05416-0.13 0.13679-0.14642 0.22976l-0.16503 0.93477c-0.034173 0.1936 0.095067 0.37823 0.28862 0.4124l4.2066 0.74264c0.02059 0.0037 0.04124 0.0054 0.06188 0.0054 0.07253 0 0.14386-0.02217 0.20414-0.06431 0.07737-0.05415 0.13-0.13679 0.14637-0.22976l0.7426-4.2066c0.03423-0.1936-0.09502-0.37822-0.28861-0.41244l-0.93477-0.16503c-0.19388-0.03431-0.37827 0.09507-0.4124 0.28867l-0.31254 1.7703c-0.3506-0.43484-0.75323-0.82882-1.1983-1.1696-1.2299-0.94156-2.6987-1.4392-4.2476-1.4392-2.2033 0-4.2323 0.9997-5.5666 2.7427-1.1366 1.4849-1.627 3.3235-1.3808 5.1771 0.24623 1.8538 1.1996 3.5006 2.6843 4.6372z"/></g><path d="m3.5418 13.557c1.2332 0.94407 2.7 1.443 4.2417 1.4429h9.48e-5c0.31064 0 0.62536-0.02089 0.93534-0.06207 1.8536-0.24619 3.5005-1.1995 4.6372-2.6843 0.69157-0.90335 1.1565-1.9703 1.3446-3.0855 0.0327-0.19384-0.09796-0.37752-0.2918-0.41022l-0.936-0.15786c-0.09321-0.015662-0.18862 0.00622-0.26555 0.060941-0.07693 0.054723-0.12896 0.13774-0.14467 0.23086-0.14329 0.84939-0.49788 1.6627-1.0256 2.352-0.86695 1.1325-2.123 1.8596-3.5369 2.0474-0.23703 0.03151-0.47752 0.04746-0.71469 0.04746-1.175 0-2.2932-0.3806-3.2339-1.1007-1.1325-0.86694-1.8596-2.123-2.0473-3.5368-0.18781-1.4138 0.18624-2.8161 1.0531-3.9486 1.0176-1.3293 2.5654-2.0916 4.2464-2.0916 1.1811 0 2.3012 0.37951 3.2391 1.0974 0.31088 0.23798 0.58996 0.50381 0.83657 0.79518l-1.753-0.30945c-0.09284-0.01647-0.18857 0.00479-0.26598 0.0589-0.077411 0.054155-0.13 0.13679-0.14642 0.22976l-0.16503 0.93477c-0.034173 0.1936 0.095067 0.37823 0.28862 0.4124l4.2066 0.74264c0.02059 0.00366 0.04124 0.00541 0.06188 0.00541 0.07253 0 0.14386-0.022165 0.20414-0.064311 0.07737-0.054155 0.13-0.13679 0.14637-0.22976l0.7426-4.2066c0.034226-0.1936-0.095015-0.37823-0.28861-0.41245l-0.93477-0.16503c-0.19388-0.034315-0.37827 0.095067-0.4124 0.28867l-0.31254 1.7703c-0.3506-0.43485-0.75323-0.82883-1.1983-1.1696-1.2299-0.94156-2.6987-1.4392-4.2476-1.4392-2.2033 0-4.2323 0.9997-5.5666 2.7427-1.1366 1.4849-1.627 3.3235-1.3808 5.1771 0.24623 1.8538 1.1996 3.5006 2.6843 4.6372z" fill="#0064c8"/><path d="m3.5418 29.557c1.2332 0.94407 2.7 1.443 4.2417 1.4429h9.48e-5c0.31064 0 0.62536-0.02089 0.93534-0.06207 1.8536-0.24619 3.5005-1.1995 4.6372-2.6843 0.69157-0.90335 1.1565-1.9703 1.3446-3.0855 0.0327-0.19384-0.09796-0.37752-0.2918-0.41022l-0.936-0.15786c-0.09321-0.01566-0.18862 0.0062-0.26555 0.06094-0.07693 0.05472-0.12896 0.13774-0.14467 0.23086-0.14329 0.84939-0.49788 1.6627-1.0256 2.352-0.86695 1.1325-2.123 1.8596-3.5369 2.0474-0.23703 0.03151-0.47752 0.04746-0.71469 0.04746-1.175 0-2.2932-0.3806-3.2339-1.1007-1.1325-0.86694-1.8596-2.123-2.0473-3.5368-0.18781-1.4138 0.18624-2.8161 1.0531-3.9486 1.0176-1.3293 2.5654-2.0916 4.2464-2.0916 1.1811 0 2.3012 0.37951 3.2391 1.0974 0.31088 0.23798 0.58996 0.50381 0.83657 0.79518l-1.753-0.30945c-0.09284-0.01647-0.18857 0.0048-0.26598 0.0589-0.077411 0.05415-0.13 0.13679-0.14642 0.22976l-0.16503 0.93477c-0.034173 0.1936 0.095067 0.37823 0.28862 0.4124l4.2066 0.74264c0.02059 0.0037 0.04124 0.0054 0.06188 0.0054 0.07253 0 0.14386-0.02217 0.20414-0.06431 0.07737-0.05416 0.13-0.13679 0.14637-0.22976l0.7426-4.2066c0.03423-0.1936-0.09502-0.37822-0.28861-0.41245l-0.93477-0.16503c-0.19388-0.03431-0.37827 0.09507-0.4124 0.28867l-0.31254 1.7703c-0.3506-0.43484-0.75323-0.82882-1.1983-1.1696-1.2299-0.94156-2.6987-1.4392-4.2476-1.4392-2.2033 0-4.2323 0.9997-5.5666 2.7427-1.1366 1.4849-1.627 3.3235-1.3808 5.1771 0.24623 1.8538 1.1996 3.5006 2.6843 4.6372z" fill="#0080ff"/><path d="m3.5418 45.557c1.2332 0.94407 2.7 1.443 4.2417 1.4429h9.48e-5c0.31064 0 0.62536-0.02089 0.93534-0.06207 1.8536-0.24619 3.5005-1.1995 4.6372-2.6843 0.69157-0.90335 1.1565-1.9703 1.3446-3.0855 0.0327-0.19384-0.09796-0.37752-0.2918-0.41022l-0.936-0.15786c-0.09321-0.01566-0.18862 0.0062-0.26555 0.06094-0.07693 0.05472-0.12896 0.13774-0.14467 0.23086-0.14329 0.84939-0.49788 1.6627-1.0256 2.352-0.86695 1.1325-2.123 1.8596-3.5369 2.0474-0.23703 0.03151-0.47752 0.04746-0.71469 0.04746-1.175 0-2.2932-0.3806-3.2339-1.1007-1.1325-0.86694-1.8596-2.123-2.0473-3.5368-0.18781-1.4138 0.18624-2.8161 1.0531-3.9486 1.0176-1.3293 2.5654-2.0916 4.2464-2.0916 1.1811 0 2.3012 0.37951 3.2391 1.0974 0.31088 0.23798 0.58996 0.50381 0.83657 0.79518l-1.753-0.30945c-0.09284-0.01647-0.18857 0.0048-0.26598 0.0589-0.077411 0.05416-0.13 0.13679-0.14642 0.22976l-0.16503 0.93477c-0.034173 0.1936 0.095067 0.37823 0.28862 0.4124l4.2066 0.74264c0.02059 0.0037 0.04124 0.0054 0.06188 0.0054 0.07253 0 0.14386-0.02217 0.20414-0.06431 0.07737-0.05415 0.13-0.13679 0.14637-0.22976l0.7426-4.2066c0.03423-0.1936-0.09502-0.37822-0.28861-0.41244l-0.93477-0.16503c-0.19388-0.03431-0.37827 0.09507-0.4124 0.28867l-0.31254 1.7703c-0.3506-0.43484-0.75323-0.82882-1.1983-1.1696-1.2299-0.94156-2.6987-1.4392-4.2476-1.4392-2.2033 0-4.2323 0.9997-5.5666 2.7427-1.1366 1.4849-1.627 3.3235-1.3808 5.1771 0.24623 1.8538 1.1996 3.5006 2.6843 4.6372z" fill="#0050a0"/></svg>