<?xml version="1.0" encoding="UTF-8"?>
<svg width="64" height="64" version="1.1" viewBox="0 0 64 64" xmlns="http://www.w3.org/2000/svg" xmlns:cc="http://creativecommons.org/ns#" xmlns:dc="http://purl.org/dc/elements/1.1/" xmlns:rdf="http://www.w3.org/1999/02/22-rdf-syntax-ns#" xmlns:xlink="http://www.w3.org/1999/xlink"><title>Chronosoft Thoughtviewer Logo</title><defs><linearGradient id="b" x1="32" x2="32" y1="2" y2="62" gradientUnits="userSpaceOnUse"><stop stop-color="#048" offset=".64"/><stop stop-color="#f0f0f0" offset="1"/></linearGradient><linearGradient id="a" x1="32" x2="32" y1="2" y2="18" gradientTransform="matrix(1.0476 0 0 1.25 -1.5238 -.5)" gradientUnits="userSpaceOnUse"><stop stop-color="#f0f0f0" offset="0"/><stop stop-color="#f0f0f0" stop-opacity="0" offset="1"/></linearGradient><filter id="d" x="0" y="-.057833" width="1" height="1.0578" color-interpolation-filters="sRGB"><feFlood flood-color="rgb(0,8,16)" flood-opacity=".50196" in="SourceGraphic" result="flood"/><feGaussianBlur in="SourceGraphic" result="blur" stdDeviation="0.000000"/><feOffset dx="0.000000" dy="-2.000000" in="blur" result="offset"/><feComposite in="flood" in2="offset" operator="in" result="comp1"/><feComposite in="SourceGraphic" in2="comp1" result="comp2"/></filter><filter id="c" x="-.060938" y="-.0975" width="1.1219" height="1.195" color-interpolation-filters="sRGB"><feGaussianBlur stdDeviation="0.81250003"/></filter></defs><g stroke-width="0"><ellipse cx="32" cy="32" rx="32" ry="32" fill="#012" opacity=".9" style="paint-order:stroke fill markers"/><circle cx="32" cy="32" r="30" fill="url(#b)" style="paint-order:stroke fill markers"/><path d="m52.5 28.791q0 1.2835-0.42783 2.4957-0.41 1.2122-1.1943 2.2283 0.17826 0.57044 0.24957 1.1587 0.08913 0.58826 0.08913 1.1765 0 1.747-0.73087 3.3691-0.71304 1.6043-1.9965 2.7809-0.65956 1.6578-1.747 3.0126-1.0874 1.3548-2.4957 2.2996-1.3904 0.94478-3.0483 1.4617-1.6578 0.51696-3.4404 0.51696-1.23 0-2.4243-0.26739-1.1943-0.24956-2.2996-0.7487-1.1052-0.49913-2.1035-1.23-0.98044-0.71304-1.8004-1.64-1.4439-0.17826-2.7452-0.82-1.3013-0.64174-2.3174-1.6935h-4.2426q-1.7113 0-3.2265-0.65956-1.5152-0.65957-2.6561-1.7826-1.123-1.1409-1.7826-2.6561t-0.65957-3.2265v-3.8504q0-1.0161 0.28522-1.9609 0.28522-0.96261 0.82-1.7826 0.53478-0.83783 1.2835-1.4974 0.7487-0.67739 1.6578-1.1052 0.3387-1.5865 1.1587-2.8878 0.83783-1.3191 2.0143-2.2461 1.1943-0.94478 2.6561-1.4439 1.4796-0.51696 3.0839-0.51696 1.2478-1.23 2.87-1.8896 1.64-0.67739 3.387-0.67739 1.4261 0 2.763 0.44565 1.3548 0.42783 2.4957 1.2835 0.7487-0.23174 1.5152-0.3387 0.76652-0.10696 1.5509-0.10696 1.5865 0 3.0839 0.44565 1.4974 0.44565 2.7809 1.2835 1.3013 0.82 2.3174 1.9965 1.0339 1.1587 1.7113 2.6026 0.82 0.53478 1.4796 1.2478 0.67739 0.69522 1.123 1.533 0.46348 0.83782 0.71304 1.7826 0.24956 0.92696 0.24956 1.9074zm-3.0304 2.1213q0.24956-0.49913 0.35652-1.0339 0.10696-0.53478 0.10696-1.0874 0-0.7487-0.21391-1.4617-0.21391-0.71304-0.62391-1.3191-0.39217-0.60609-0.94478-1.0874-0.55261-0.49913-1.2478-0.80217-0.44565-1.2478-1.23-2.2639-0.78435-1.0339-1.8183-1.7648-1.0339-0.73087-2.2639-1.1409-1.23-0.41-2.5491-0.41-1.8896 0-3.6009 0.83783l0.17826-0.07131q-0.85565 0.39217-1.4617 0.82t-1.0874 0.94478q-0.46348 0.51696-0.85565 1.1587-0.39217 0.62391-0.83783 1.4083-0.19609 0.35652-0.49913 0.57043-0.28522 0.19609-0.69522 0.19609-0.51696 0-0.8913-0.37435-0.37435-0.39217-0.37435-0.90913 0-0.21391 0.08913-0.4813 0.26739-0.71304 0.69522-1.4083 0.44565-0.71304 0.98043-1.337 0.55261-0.64174 1.1765-1.1765 0.62391-0.55261 1.2657-0.96261l0.08913 0.01783q-0.58827-0.24956-1.23-0.37434-0.62391-0.12478-1.2657-0.12478-1.5509 0-2.9235 0.71304-1.3548 0.69522-2.2639 1.9609-0.30304-0.05348-0.60609-0.08913-0.30304-0.03565-0.60609-0.03565-1.2835 0-2.46 0.49913-1.1587 0.4813-2.05 1.337-0.87348 0.85565-1.3904 2.0143-0.51696 1.1409-0.51696 2.4422v0.12478q0 0.01783 0 0.03565 0.01783 0 0.01783 0.01783-0.82 0.12478-1.533 0.51696-0.69522 0.39217-1.2122 0.98044-0.51696 0.58826-0.82 1.337-0.28522 0.7487-0.28522 1.5865v3.8504q0 1.1943 0.44565 2.2461 0.46348 1.0339 1.2478 1.8183 0.78435 0.78435 1.8183 1.2478 1.0517 0.44565 2.2461 0.44565h2.3887q0.12478-0.12478 0.23174-0.23174 0.10696-0.12478 0.23174-0.23174 0.58826-0.57044 1.123-1.123 0.53478-0.55261 0.92696-1.1587 0.41-0.62391 0.64174-1.3548 0.23174-0.73087 0.23174-1.6578 0-0.90913-0.23174-1.64-0.21391-0.7487-0.62392-1.3548-0.39217-0.62391-0.98043-1.1409-0.58826-0.51696-1.3013-0.99826-0.32087-0.21391-0.51696-0.46348-0.17826-0.26739-0.17826-0.67739 0-0.53478 0.37435-0.90913 0.39217-0.37435 0.92696-0.37435 0.37435 0 0.83783 0.28522 0.4813 0.26739 0.94478 0.65957 0.4813 0.37435 0.8913 0.78435 0.41 0.41 0.64174 0.69522 0.73087-0.30304 1.4796-0.46348 0.76652-0.17826 1.5687-0.17826 0.51696 0 0.8913 0.39217 0.39217 0.37435 0.39217 0.8913 0 0.53478-0.37435 0.90913-0.37435 0.37435-0.90913 0.37435-0.94478 0-1.8004 0.32087 0.51696 1.4083 0.51696 2.9057 0 0.96261-0.17826 1.7648-0.17826 0.80217-0.51696 1.533-0.32087 0.73087-0.82 1.4083-0.4813 0.65957-1.1052 1.3548 0.80217 1.0696 1.9965 1.6578 1.2122 0.58826 2.5491 0.58826 0.98043 0 1.8896-0.32087 0.92696-0.3387 1.6935-0.96261h0.08913q1.23-1.1765 2.3709-2.3709 1.1587-1.2122 2.3887-2.3887 1.1409-1.1052 2.4243-1.6935 1.3013-0.58826 2.9235-0.58826 0.32087 0 0.60609 0.0713 0.28522 0.05347 0.49913 0.21391 0.23174 0.14261 0.35652 0.39217 0.14261 0.24956 0.14261 0.60609 0 0.35652-0.14261 0.60609-0.12478 0.24957-0.3387 0.41-0.21391 0.14261-0.51696 0.21391-0.28522 0.05347-0.60609 0.05347-1.0696 0-1.9252 0.39217-0.85565 0.39218-1.6043 1.1409l-2.9591 2.9413h5.5261q1.1943 0 2.2283-0.44565 1.0517-0.46348 1.8361-1.2478t1.23-1.8183q0.46348-1.0517 0.46348-2.2461 0-0.78435-0.21391-1.5152-0.19609-0.7487-0.58826-1.4083-0.37435-0.62391-0.8913-1.1409-0.51696-0.51696-1.1587-0.89131-0.62391-0.37435-1.337-0.58826-0.69522-0.21391-1.4439-0.21391-0.99826 0-1.9965 0-0.98043-0.01783-1.9787-0.01783-0.51696 0-0.90913-0.37435-0.37435-0.39217-0.37435-0.90913 0-0.51696 0.37435-0.89131 0.39217-0.37435 0.90913-0.37435h2.157q-0.10695-0.64175-0.17826-1.2835-0.05347-0.64174-0.05347-1.2835 0-0.53478 0.37435-0.90913 0.37435-0.37435 0.90913-0.37435t0.90913 0.37435q0.37435 0.37435 0.37435 0.90913 0 0.65956 0.07131 1.3191 0.07131 0.65956 0.21391 1.3013 1.6935 0.19609 3.173 1.0517 1.4796 0.83782 2.5135 2.1748z" fill="#f0f0f0" filter="url(#d)" style="paint-order:stroke fill markers" aria-label="🧠"/><ellipse transform="matrix(1.2531 0 0 1.2531 -8.1004 -.062654)" cx="32" cy="12" rx="16" ry="10" fill="url(#a)" filter="url(#c)" style="paint-order:stroke fill markers"/></g><metadata><rdf:RDF><cc:Work rdf:about=""><dc:title>Chronosoft Thoughtviewer Logo</dc:title></cc:Work></rdf:RDF></metadata></svg>
